<?xml version="1.0" encoding="utf-8"?>
<!-- Generator: Adobe Illustrator 16.0.0, SVG Export Plug-In . SVG Version: 6.00 Build 0)  -->
<!DOCTYPE svg PUBLIC "-//W3C//DTD SVG 1.1//EN" "http://www.w3.org/Graphics/SVG/1.1/DTD/svg11.dtd">
<svg version="1.1" id="圖層_1" focusable="false" xmlns="http://www.w3.org/2000/svg" xmlns:xlink="http://www.w3.org/1999/xlink"
	 x="0px" y="0px" width="595.281px" height="841.89px" viewBox="0 0 595.281 841.89" enable-background="new 0 0 595.281 841.89"
	 xml:space="preserve">
<path fill="#FFFFFF" d="M297.64,132.606c-159.284,0-288.339,129.055-288.339,288.339c0,159.285,129.055,288.339,288.339,288.339
	c159.283,0,288.34-129.055,288.34-288.339C585.98,261.661,456.923,132.606,297.64,132.606z M297.64,653.476
	c-128.474,0-232.531-104.057-232.531-232.531c0-128.474,104.058-232.532,232.531-232.532c128.473,0,232.531,104.058,232.531,232.532
	C530.171,549.419,426.113,653.476,297.64,653.476z M409.255,327.933v186.026c0,10.23-8.371,18.602-18.604,18.602h-55.807
	c-10.23,0-18.604-8.371-18.604-18.602V327.933c0-10.231,8.373-18.603,18.604-18.603h55.807
	C400.884,309.33,409.255,317.701,409.255,327.933z M279.038,327.933v186.026c0,10.23-8.371,18.602-18.603,18.602h-55.808
	c-10.231,0-18.603-8.371-18.603-18.602V327.933c0-10.231,8.371-18.603,18.603-18.603h55.808
	C270.667,309.33,279.038,317.701,279.038,327.933z"/>
</svg>
