<?xml version="1.0" encoding="utf-8"?>
<!-- Generator: Adobe Illustrator 16.0.0, SVG Export Plug-In . SVG Version: 6.00 Build 0)  -->
<!DOCTYPE svg PUBLIC "-//W3C//DTD SVG 1.1//EN" "http://www.w3.org/Graphics/SVG/1.1/DTD/svg11.dtd">
<svg version="1.1" id="圖層_1" focusable="false" xmlns="http://www.w3.org/2000/svg" xmlns:xlink="http://www.w3.org/1999/xlink"
	 x="0px" y="0px" width="595.281px" height="841.89px" viewBox="0 0 595.281 841.89" enable-background="new 0 0 595.281 841.89"
	 xml:space="preserve">
<path fill="#FFFFFF" d="M432.16,400.017L227.532,275.613c-18.37-10.231-41.507,2.907-41.507,24.416v241.832
	c0,21.393,23.021,34.648,41.507,24.416L432.16,448.849C451.228,438.269,451.228,410.714,432.16,400.017z M585.98,420.945
	c0-159.284-129.057-288.339-288.34-288.339c-159.284,0-288.339,129.055-288.339,288.339c0,159.285,129.055,288.339,288.339,288.339
	C456.923,709.285,585.98,580.23,585.98,420.945z M65.109,420.945c0-128.474,104.058-232.532,232.531-232.532
	c128.473,0,232.531,104.058,232.531,232.532c0,128.474-104.059,232.531-232.531,232.531
	C169.167,653.476,65.109,549.419,65.109,420.945z"/>
</svg>
